<?xml version="1.0" encoding="us-ascii" standalone="no"?>
<svg xmlns="http://www.w3.org/2000/svg" contentStyleType="text/css" height="708px" preserveAspectRatio="none"
     style="width:1807px;height:708px;background:#FFFFFF;" version="1.1" viewBox="0 0 1807 708" width="1807px"
     zoomAndPan="magnify"><defs><filter height="300%" id="f8tp2hn8l0no0" width="300%" x="-1" y="-1"><feGaussianBlur result="blurOut" stdDeviation="2.0"/><feColorMatrix in="blurOut" result="blurOut2" type="matrix" values="0 0 0 0 0 0 0 0 0 0 0 0 0 0 0 0 0 0 .4 0"/><feOffset dx="4.0" dy="4.0" in="blurOut2" result="blurOut3"/><feBlend in="SourceGraphic" in2="blurOut3" mode="normal"/></filter></defs><g><!--cluster Modules--><g id="cluster_Modules"><polygon fill="none" filter="url(#f8tp2hn8l0no0)" points="16,196,80,196,87,218.2969,592,218.2969,592,509,16,509,16,196" style="stroke:#000000;stroke-width:1.5;"/><line style="stroke:#000000;stroke-width:1.5;" x1="16" x2="87" y1="218.2969" y2="218.2969"/><text fill="#000000" font-family="sans-serif" font-size="14" lengthAdjust="spacing" textLength="58" x="20" y="210.9951">Modules</text></g><!--cluster Record--><g id="cluster_Record"><polygon fill="none" filter="url(#f8tp2hn8l0no0)" points="616,188,673,188,680,210.2969,1790,210.2969,1790,699,616,699,616,188" style="stroke:#000000;stroke-width:1.5;"/><line style="stroke:#000000;stroke-width:1.5;" x1="616" x2="680" y1="210.2969" y2="210.2969"/><text fill="#000000" font-family="sans-serif" font-size="14" lengthAdjust="spacing" textLength="51" x="620" y="202.9951">Record</text></g><!--class Module--><g id="elem_Module"><rect codeLine="4" fill="#FEFECE" filter="url(#f8tp2hn8l0no0)" height="96.8906" id="Module" style="stroke:#A80036;stroke-width:1.0;" width="177" x="256.5" y="231"/><ellipse cx="314.75" cy="247" fill="#A9DCDF" rx="11" ry="11" style="stroke:#A80036;stroke-width:1.0;"/><path d="M316.8281,248.8125 L317.2188,249.7969 L316.8281,249.7969 C316.375,249.7969 316.2656,249.8125 316.1094,249.9219 C315.8594,250.0781 315.7031,250.3594 315.7031,250.6563 C315.7031,250.9219 315.8438,251.1719 316.0625,251.3281 C316.2031,251.4531 316.4063,251.5 316.8281,251.5 L319.1875,251.5 C319.5469,251.5 319.7656,251.4688 319.9063,251.375 C320.1563,251.2344 320.3125,250.9375 320.3125,250.6563 C320.3125,250.375 320.1719,250.125 319.9531,249.9688 C319.7813,249.8281 319.625,249.7969 319.1563,249.7969 L315.7656,241.5938 L312.0938,241.5938 C311.6406,241.5938 311.5156,241.6094 311.3594,241.7031 C311.1094,241.875 310.9531,242.1563 310.9531,242.4375 C310.9531,242.7188 311.0938,242.9688 311.3125,243.1406 C311.4844,243.25 311.6563,243.2813 312.0938,243.2813 L313.1719,243.2813 L310.5313,249.7969 C310.1094,249.7969 309.9531,249.8125 309.7969,249.9219 C309.5469,250.0781 309.3906,250.3594 309.3906,250.6563 C309.3906,251.2188 309.7656,251.5 310.5156,251.5 L312.7813,251.5 C313.1406,251.5 313.3594,251.4688 313.4844,251.375 C313.75,251.2344 313.8906,250.9375 313.8906,250.6563 C313.8906,250.375 313.7656,250.125 313.5469,249.9531 C313.375,249.8281 313.2344,249.7969 312.7813,249.7969 L312.3906,249.7969 L312.7813,248.8125 L316.8281,248.8125 Z M316.125,247.1094 L313.4531,247.1094 L314.7969,243.8438 L316.125,247.1094 Z " fill="#000000"/><text fill="#000000" font-family="sans-serif" font-size="14" font-style="italic" lengthAdjust="spacing" textLength="52" x="335.25" y="251.8467">Module</text><line style="stroke:#A80036;stroke-width:1.0;" x1="257.5" x2="432.5" y1="263" y2="263"/><rect fill="none" height="6" style="stroke:#C82930;stroke-width:1.0;" width="6" x="264.5" y="273.6484"/><text fill="#000000" font-family="sans-serif" font-size="14" lengthAdjust="spacing" textLength="84" x="276.5" y="279.9951">Decision op</text><line style="stroke:#A80036;stroke-width:1.0;" x1="257.5" x2="432.5" y1="287.2969" y2="287.2969"/><ellipse cx="267.5" cy="300.9453" fill="#84BE84" rx="3" ry="3" style="stroke:#038048;stroke-width:1.0;"/><text fill="#000000" font-family="sans-serif" font-size="14" font-style="italic" lengthAdjust="spacing" textLength="151" x="276.5" y="304.292">JSONObject getJSON()</text><ellipse cx="267.5" cy="317.2422" fill="#84BE84" rx="3" ry="3" style="stroke:#038048;stroke-width:1.0;"/><text fill="#000000" font-family="sans-serif" font-size="14" lengthAdjust="spacing" textLength="104" x="276.5" y="320.5889">String getOp()</text></g><!--class Radar--><g id="elem_Radar"><rect codeLine="9" fill="#FEFECE" filter="url(#f8tp2hn8l0no0)" height="48" id="Radar" style="stroke:#A80036;stroke-width:1.0;" width="73" x="32.5" y="445"/><ellipse cx="47.5" cy="461" fill="#ADD1B2" rx="11" ry="11" style="stroke:#A80036;stroke-width:1.0;"/><path d="M49.8438,456.6719 C48.9063,456.2344 48.3125,456.0938 47.4375,456.0938 C44.8125,456.0938 42.8125,458.1719 42.8125,460.8906 L42.8125,462.0156 C42.8125,464.5938 44.9219,466.4844 47.8125,466.4844 C49.0313,466.4844 50.1875,466.1875 50.9375,465.6406 C51.5156,465.2344 51.8438,464.7813 51.8438,464.3906 C51.8438,463.9375 51.4531,463.5469 50.9844,463.5469 C50.7656,463.5469 50.5625,463.625 50.375,463.8125 C49.9219,464.2969 49.9219,464.2969 49.7344,464.3906 C49.3125,464.6563 48.625,464.7813 47.8594,464.7813 C45.8125,464.7813 44.5156,463.6875 44.5156,461.9844 L44.5156,460.8906 C44.5156,459.1094 45.7656,457.7969 47.5,457.7969 C48.0781,457.7969 48.6875,457.9531 49.1563,458.2031 C49.6406,458.4844 49.8125,458.7031 49.9063,459.1094 C49.9688,459.5156 50,459.6406 50.1406,459.7656 C50.2813,459.9063 50.5156,460.0156 50.7344,460.0156 C51,460.0156 51.2656,459.875 51.4375,459.6563 C51.5469,459.5 51.5781,459.3125 51.5781,458.8906 L51.5781,457.4688 C51.5781,457.0313 51.5625,456.9063 51.4688,456.75 C51.3125,456.4844 51.0313,456.3438 50.7344,456.3438 C50.4375,456.3438 50.2344,456.4375 50.0156,456.75 L49.8438,456.6719 Z " fill="#000000"/><text fill="#000000" font-family="sans-serif" font-size="14" lengthAdjust="spacing" textLength="41" x="61.5" y="465.8467">Radar</text><line style="stroke:#A80036;stroke-width:1.0;" x1="33.5" x2="104.5" y1="477" y2="477"/><line style="stroke:#A80036;stroke-width:1.0;" x1="33.5" x2="104.5" y1="485" y2="485"/></g><!--class Turner--><g id="elem_Turner"><rect codeLine="10" fill="#FEFECE" filter="url(#f8tp2hn8l0no0)" height="48" id="Turner" style="stroke:#A80036;stroke-width:1.0;" width="79" x="140.5" y="445"/><ellipse cx="155.5" cy="461" fill="#ADD1B2" rx="11" ry="11" style="stroke:#A80036;stroke-width:1.0;"/><path d="M157.8438,456.6719 C156.9063,456.2344 156.3125,456.0938 155.4375,456.0938 C152.8125,456.0938 150.8125,458.1719 150.8125,460.8906 L150.8125,462.0156 C150.8125,464.5938 152.9219,466.4844 155.8125,466.4844 C157.0313,466.4844 158.1875,466.1875 158.9375,465.6406 C159.5156,465.2344 159.8438,464.7813 159.8438,464.3906 C159.8438,463.9375 159.4531,463.5469 158.9844,463.5469 C158.7656,463.5469 158.5625,463.625 158.375,463.8125 C157.9219,464.2969 157.9219,464.2969 157.7344,464.3906 C157.3125,464.6563 156.625,464.7813 155.8594,464.7813 C153.8125,464.7813 152.5156,463.6875 152.5156,461.9844 L152.5156,460.8906 C152.5156,459.1094 153.7656,457.7969 155.5,457.7969 C156.0781,457.7969 156.6875,457.9531 157.1563,458.2031 C157.6406,458.4844 157.8125,458.7031 157.9063,459.1094 C157.9688,459.5156 158,459.6406 158.1406,459.7656 C158.2813,459.9063 158.5156,460.0156 158.7344,460.0156 C159,460.0156 159.2656,459.875 159.4375,459.6563 C159.5469,459.5 159.5781,459.3125 159.5781,458.8906 L159.5781,457.4688 C159.5781,457.0313 159.5625,456.9063 159.4688,456.75 C159.3125,456.4844 159.0313,456.3438 158.7344,456.3438 C158.4375,456.3438 158.2344,456.4375 158.0156,456.75 L157.8438,456.6719 Z " fill="#000000"/><text fill="#000000" font-family="sans-serif" font-size="14" lengthAdjust="spacing" textLength="47" x="169.5" y="465.8467">Turner</text><line style="stroke:#A80036;stroke-width:1.0;" x1="141.5" x2="218.5" y1="477" y2="477"/><line style="stroke:#A80036;stroke-width:1.0;" x1="141.5" x2="218.5" y1="485" y2="485"/></g><!--class Flyer--><g id="elem_Flyer"><rect codeLine="11" fill="#FEFECE" filter="url(#f8tp2hn8l0no0)" height="48" id="Flyer" style="stroke:#A80036;stroke-width:1.0;" width="67" x="254.5" y="445"/><ellipse cx="269.5" cy="461" fill="#ADD1B2" rx="11" ry="11" style="stroke:#A80036;stroke-width:1.0;"/><path d="M271.8438,456.6719 C270.9063,456.2344 270.3125,456.0938 269.4375,456.0938 C266.8125,456.0938 264.8125,458.1719 264.8125,460.8906 L264.8125,462.0156 C264.8125,464.5938 266.9219,466.4844 269.8125,466.4844 C271.0313,466.4844 272.1875,466.1875 272.9375,465.6406 C273.5156,465.2344 273.8438,464.7813 273.8438,464.3906 C273.8438,463.9375 273.4531,463.5469 272.9844,463.5469 C272.7656,463.5469 272.5625,463.625 272.375,463.8125 C271.9219,464.2969 271.9219,464.2969 271.7344,464.3906 C271.3125,464.6563 270.625,464.7813 269.8594,464.7813 C267.8125,464.7813 266.5156,463.6875 266.5156,461.9844 L266.5156,460.8906 C266.5156,459.1094 267.7656,457.7969 269.5,457.7969 C270.0781,457.7969 270.6875,457.9531 271.1563,458.2031 C271.6406,458.4844 271.8125,458.7031 271.9063,459.1094 C271.9688,459.5156 272,459.6406 272.1406,459.7656 C272.2813,459.9063 272.5156,460.0156 272.7344,460.0156 C273,460.0156 273.2656,459.875 273.4375,459.6563 C273.5469,459.5 273.5781,459.3125 273.5781,458.8906 L273.5781,457.4688 C273.5781,457.0313 273.5625,456.9063 273.4688,456.75 C273.3125,456.4844 273.0313,456.3438 272.7344,456.3438 C272.4375,456.3438 272.2344,456.4375 272.0156,456.75 L271.8438,456.6719 Z " fill="#000000"/><text fill="#000000" font-family="sans-serif" font-size="14" lengthAdjust="spacing" textLength="35" x="283.5" y="465.8467">Flyer</text><line style="stroke:#A80036;stroke-width:1.0;" x1="255.5" x2="320.5" y1="477" y2="477"/><line style="stroke:#A80036;stroke-width:1.0;" x1="255.5" x2="320.5" y1="485" y2="485"/></g><!--class Scanner--><g id="elem_Scanner"><rect codeLine="12" fill="#FEFECE" filter="url(#f8tp2hn8l0no0)" height="48" id="Scanner" style="stroke:#A80036;stroke-width:1.0;" width="90" x="357" y="445"/><ellipse cx="372" cy="461" fill="#ADD1B2" rx="11" ry="11" style="stroke:#A80036;stroke-width:1.0;"/><path d="M374.3438,456.6719 C373.4063,456.2344 372.8125,456.0938 371.9375,456.0938 C369.3125,456.0938 367.3125,458.1719 367.3125,460.8906 L367.3125,462.0156 C367.3125,464.5938 369.4219,466.4844 372.3125,466.4844 C373.5313,466.4844 374.6875,466.1875 375.4375,465.6406 C376.0156,465.2344 376.3438,464.7813 376.3438,464.3906 C376.3438,463.9375 375.9531,463.5469 375.4844,463.5469 C375.2656,463.5469 375.0625,463.625 374.875,463.8125 C374.4219,464.2969 374.4219,464.2969 374.2344,464.3906 C373.8125,464.6563 373.125,464.7813 372.3594,464.7813 C370.3125,464.7813 369.0156,463.6875 369.0156,461.9844 L369.0156,460.8906 C369.0156,459.1094 370.2656,457.7969 372,457.7969 C372.5781,457.7969 373.1875,457.9531 373.6563,458.2031 C374.1406,458.4844 374.3125,458.7031 374.4063,459.1094 C374.4688,459.5156 374.5,459.6406 374.6406,459.7656 C374.7813,459.9063 375.0156,460.0156 375.2344,460.0156 C375.5,460.0156 375.7656,459.875 375.9375,459.6563 C376.0469,459.5 376.0781,459.3125 376.0781,458.8906 L376.0781,457.4688 C376.0781,457.0313 376.0625,456.9063 375.9688,456.75 C375.8125,456.4844 375.5313,456.3438 375.2344,456.3438 C374.9375,456.3438 374.7344,456.4375 374.5156,456.75 L374.3438,456.6719 Z " fill="#000000"/><text fill="#000000" font-family="sans-serif" font-size="14" lengthAdjust="spacing" textLength="58" x="386" y="465.8467">Scanner</text><line style="stroke:#A80036;stroke-width:1.0;" x1="358" x2="446" y1="477" y2="477"/><line style="stroke:#A80036;stroke-width:1.0;" x1="358" x2="446" y1="485" y2="485"/></g><!--class Decision--><g id="elem_Decision"><rect codeLine="13" fill="#FEFECE" filter="url(#f8tp2hn8l0no0)" height="48" id="Decision" style="stroke:#A80036;stroke-width:1.0;" width="93" x="482.5" y="445"/><ellipse cx="497.5" cy="461" fill="#EB937F" rx="11" ry="11" style="stroke:#A80036;stroke-width:1.0;"/><path d="M496.2969,461.875 L497.75,461.875 L497.75,461.9844 C497.75,462.3906 497.7813,462.5469 497.8594,462.7031 C498.0156,462.9531 498.2969,463.1094 498.5938,463.1094 C498.8438,463.1094 499.1094,462.9688 499.2656,462.75 C499.3906,462.5938 499.4219,462.4375 499.4219,461.9844 L499.4219,460.0625 C499.4219,459.9063 499.4219,459.8594 499.4063,459.7031 C499.3438,459.2344 499.0313,458.9219 498.5781,458.9219 C498.3281,458.9219 498.0625,459.0625 497.8906,459.2813 C497.7813,459.4531 497.75,459.6094 497.75,460.0625 L497.75,460.1875 L496.2969,460.1875 L496.2969,457.7813 L500.2813,457.7813 L500.2813,458.6406 C500.2813,459.0469 500.3125,459.2188 500.3906,459.375 C500.5625,459.625 500.8438,459.7813 501.125,459.7813 C501.3906,459.7813 501.6563,459.6406 501.8281,459.4219 C501.9375,459.25 501.9688,459.1094 501.9688,458.6406 L501.9688,456.0938 L494.3438,456.0938 C493.9063,456.0938 493.7813,456.1094 493.625,456.2031 C493.375,456.3594 493.2188,456.6563 493.2188,456.9375 C493.2188,457.2188 493.3594,457.4688 493.5781,457.6406 C493.7344,457.75 493.9219,457.7813 494.3438,457.7813 L494.5938,457.7813 L494.5938,464.2969 L494.3438,464.2969 C493.9375,464.2969 493.7813,464.3125 493.625,464.4219 C493.375,464.5938 493.2188,464.8594 493.2188,465.1563 C493.2188,465.4219 493.3594,465.6719 493.5781,465.8281 C493.7188,465.9531 493.9531,466 494.3438,466 L502.3438,466 L502.3438,463.4219 C502.3438,462.9844 502.3125,462.8438 502.2344,462.6875 C502.0625,462.4375 501.7813,462.2813 501.5,462.2813 C501.2344,462.2813 500.9688,462.3906 500.7969,462.6406 C500.6875,462.7969 500.6563,462.9375 500.6563,463.4219 L500.6563,464.2969 L496.2969,464.2969 L496.2969,461.875 Z " fill="#000000"/><text fill="#000000" font-family="sans-serif" font-size="14" lengthAdjust="spacing" textLength="61" x="511.5" y="465.8467">Decision</text><line style="stroke:#A80036;stroke-width:1.0;" x1="483.5" x2="574.5" y1="477" y2="477"/><line style="stroke:#A80036;stroke-width:1.0;" x1="483.5" x2="574.5" y1="485" y2="485"/></g><!--class MapUpdater--><g id="elem_MapUpdater"><rect codeLine="23" fill="#FEFECE" filter="url(#f8tp2hn8l0no0)" height="96.8906" id="MapUpdater" style="stroke:#A80036;stroke-width:1.0;" width="338" x="1436" y="231"/><ellipse cx="1557.25" cy="247" fill="#B4A7E5" rx="11" ry="11" style="stroke:#A80036;stroke-width:1.0;"/><path d="M1558.2031,243.7813 L1559.9219,243.7813 C1560.3125,243.7813 1560.5,243.75 1560.625,243.6719 C1560.8906,243.5156 1561.0313,243.2344 1561.0313,242.9375 C1561.0313,242.6719 1560.9219,242.4063 1560.6875,242.2344 C1560.5156,242.125 1560.375,242.0938 1559.9219,242.0938 L1554.7813,242.0938 C1554.3438,242.0938 1554.2188,242.1094 1554.0625,242.2031 C1553.8125,242.3594 1553.6563,242.6563 1553.6563,242.9375 C1553.6563,243.2188 1553.7969,243.4688 1554.0156,243.6406 C1554.1719,243.75 1554.3594,243.7813 1554.7813,243.7813 L1556.5,243.7813 L1556.5,250.2969 L1554.7813,250.2969 C1554.3438,250.2969 1554.2188,250.3125 1554.0625,250.4219 C1553.8125,250.5781 1553.6563,250.8594 1553.6563,251.1563 C1553.6563,251.4063 1553.7969,251.6719 1554.0156,251.8281 C1554.1719,251.9531 1554.375,252 1554.7813,252 L1559.9219,252 C1560.6719,252 1561.0313,251.7188 1561.0313,251.1563 C1561.0313,250.875 1560.9219,250.625 1560.6875,250.4531 C1560.5156,250.3281 1560.375,250.2969 1559.9219,250.2969 L1558.2031,250.2969 L1558.2031,243.7813 Z " fill="#000000"/><text fill="#000000" font-family="sans-serif" font-size="14" font-style="italic" lengthAdjust="spacing" textLength="87" x="1577.75" y="251.8467">MapUpdater</text><line style="stroke:#A80036;stroke-width:1.0;" x1="1437" x2="1773" y1="263" y2="263"/><line style="stroke:#A80036;stroke-width:1.0;" x1="1437" x2="1773" y1="271" y2="271"/><ellipse cx="1447" cy="284.6484" fill="#84BE84" rx="3" ry="3" style="stroke:#038048;stroke-width:1.0;"/><text fill="#000000" font-family="sans-serif" font-size="14" font-style="italic" lengthAdjust="spacing" textLength="114" x="1456" y="287.9951">void updateFly()</text><ellipse cx="1447" cy="300.9453" fill="#84BE84" rx="3" ry="3" style="stroke:#038048;stroke-width:1.0;"/><text fill="#000000" font-family="sans-serif" font-size="14" font-style="italic" lengthAdjust="spacing" textLength="312" x="1456" y="304.292">void updateHeading(Heading new_heading)</text><ellipse cx="1447" cy="317.2422" fill="#84BE84" rx="3" ry="3" style="stroke:#038048;stroke-width:1.0;"/><text fill="#000000" font-family="sans-serif" font-size="14" font-style="italic" lengthAdjust="spacing" textLength="261" x="1456" y="320.5889">void updateScan(TileType new_type)</text></g><!--class RelativeMap--><g id="elem_RelativeMap"><rect codeLine="28" fill="#FEFECE" filter="url(#f8tp2hn8l0no0)" height="145.7813" id="RelativeMap" style="stroke:#A80036;stroke-width:1.0;" width="317" x="1202.5" y="396"/><ellipse cx="1312.25" cy="412" fill="#ADD1B2" rx="11" ry="11" style="stroke:#A80036;stroke-width:1.0;"/><path d="M1314.5938,407.6719 C1313.6563,407.2344 1313.0625,407.0938 1312.1875,407.0938 C1309.5625,407.0938 1307.5625,409.1719 1307.5625,411.8906 L1307.5625,413.0156 C1307.5625,415.5938 1309.6719,417.4844 1312.5625,417.4844 C1313.7813,417.4844 1314.9375,417.1875 1315.6875,416.6406 C1316.2656,416.2344 1316.5938,415.7813 1316.5938,415.3906 C1316.5938,414.9375 1316.2031,414.5469 1315.7344,414.5469 C1315.5156,414.5469 1315.3125,414.625 1315.125,414.8125 C1314.6719,415.2969 1314.6719,415.2969 1314.4844,415.3906 C1314.0625,415.6563 1313.375,415.7813 1312.6094,415.7813 C1310.5625,415.7813 1309.2656,414.6875 1309.2656,412.9844 L1309.2656,411.8906 C1309.2656,410.1094 1310.5156,408.7969 1312.25,408.7969 C1312.8281,408.7969 1313.4375,408.9531 1313.9063,409.2031 C1314.3906,409.4844 1314.5625,409.7031 1314.6563,410.1094 C1314.7188,410.5156 1314.75,410.6406 1314.8906,410.7656 C1315.0313,410.9063 1315.2656,411.0156 1315.4844,411.0156 C1315.75,411.0156 1316.0156,410.875 1316.1875,410.6563 C1316.2969,410.5 1316.3281,410.3125 1316.3281,409.8906 L1316.3281,408.4688 C1316.3281,408.0313 1316.3125,407.9063 1316.2188,407.75 C1316.0625,407.4844 1315.7813,407.3438 1315.4844,407.3438 C1315.1875,407.3438 1314.9844,407.4375 1314.7656,407.75 L1314.5938,407.6719 Z " fill="#000000"/><text fill="#000000" font-family="sans-serif" font-size="14" lengthAdjust="spacing" textLength="89" x="1332.75" y="416.8467">RelativeMap</text><line style="stroke:#A80036;stroke-width:1.0;" x1="1203.5" x2="1518.5" y1="428" y2="428"/><rect fill="none" height="6" style="stroke:#C82930;stroke-width:1.0;" width="6" x="1210.5" y="438.6484"/><text fill="#000000" font-family="sans-serif" font-size="14" lengthAdjust="spacing" textLength="258" x="1222.5" y="444.9951">Map&lt;Point, TileType&gt; relative_map</text><rect fill="none" height="6" style="stroke:#C82930;stroke-width:1.0;" width="6" x="1210.5" y="454.9453"/><text fill="#000000" font-family="sans-serif" font-size="14" lengthAdjust="spacing" textLength="128" x="1222.5" y="461.292">Point current_pos</text><rect fill="none" height="6" style="stroke:#C82930;stroke-width:1.0;" width="6" x="1210.5" y="471.2422"/><text fill="#000000" font-family="sans-serif" font-size="14" lengthAdjust="spacing" textLength="179" x="1222.5" y="477.5889">Heading current_heading</text><line style="stroke:#A80036;stroke-width:1.0;" x1="1203.5" x2="1518.5" y1="484.8906" y2="484.8906"/><ellipse cx="1213.5" cy="498.5391" fill="#84BE84" rx="3" ry="3" style="stroke:#038048;stroke-width:1.0;"/><text fill="#000000" font-family="sans-serif" font-size="14" lengthAdjust="spacing" textLength="157" x="1222.5" y="501.8857">Point getCurrentPos()</text><ellipse cx="1213.5" cy="514.8359" fill="#84BE84" rx="3" ry="3" style="stroke:#038048;stroke-width:1.0;"/><text fill="#000000" font-family="sans-serif" font-size="14" lengthAdjust="spacing" textLength="291" x="1222.5" y="518.1826">TileType getTileType(Point point_query)</text><ellipse cx="1213.5" cy="531.1328" fill="#84BE84" rx="3" ry="3" style="stroke:#038048;stroke-width:1.0;"/><text fill="#000000" font-family="sans-serif" font-size="14" lengthAdjust="spacing" textLength="210" x="1222.5" y="534.4795">Heading getCurrentHeading()</text></g><!--class Point--><g id="elem_Point"><rect codeLine="36" fill="#FEFECE" filter="url(#f8tp2hn8l0no0)" height="80.5938" id="Point" style="stroke:#A80036;stroke-width:1.0;" width="70" x="1326" y="602"/><ellipse cx="1341" cy="618" fill="#FEFECE" rx="11" ry="11" style="stroke:#A80036;stroke-width:1.0;"/><path d="M1344.7813,613.9688 C1344.7813,613.5313 1344.7656,613.3906 1344.6719,613.2344 C1344.5313,613 1344.25,612.8438 1343.9531,612.8438 C1343.6094,612.8438 1343.4688,612.9844 1343.2969,613.4063 C1342.7031,613.0313 1341.9531,612.8438 1341.0781,612.8438 C1338.9688,612.8438 1337.3906,614.1406 1337.3906,615.8594 C1337.3906,616.8281 1337.9219,617.7344 1338.7813,618.2188 C1339.3281,618.5313 1339.875,618.7031 1340.9844,618.8906 C1342.1406,619.0938 1342.4063,619.1563 1342.7656,619.3438 C1343.1406,619.5469 1343.375,619.8906 1343.375,620.25 C1343.375,620.9844 1342.3906,621.5313 1341.1406,621.5313 C1340.0156,621.5313 1338.9375,621.0469 1338.7656,620.4375 C1338.6406,619.9688 1338.6406,619.9688 1338.5156,619.8594 C1338.3594,619.7031 1338.1406,619.6094 1337.9063,619.6094 C1337.625,619.6094 1337.375,619.7344 1337.2031,619.9531 C1337.0938,620.125 1337.0469,620.3125 1337.0469,620.7344 L1337.0469,621.8594 C1337.0469,622.625 1337.3281,622.9844 1337.9219,622.9844 C1338.1875,622.9844 1338.3125,622.9219 1338.5938,622.5781 C1339.4375,623.0156 1340.3281,623.2344 1341.25,623.2344 C1343.5781,623.2344 1345.1406,622.0469 1345.1406,620.2813 C1345.1406,619.3906 1344.8281,618.7031 1344.1406,618.1563 C1343.6094,617.7344 1342.9688,617.4844 1341.4844,617.2188 C1340.2188,616.9844 1340.125,616.9531 1339.7969,616.7813 C1339.4219,616.5938 1339.1563,616.2031 1339.1563,615.8438 C1339.1563,615.1094 1340.0156,614.5469 1341.0781,614.5469 C1342.1406,614.5469 1342.9531,615.0156 1343.1094,615.6875 C1343.2188,616.2344 1343.2188,616.2344 1343.3438,616.375 C1343.4844,616.5 1343.7188,616.6094 1343.9531,616.6094 C1344.2188,616.6094 1344.4688,616.4688 1344.6406,616.25 C1344.75,616.0781 1344.7813,615.9375 1344.7813,615.4688 L1344.7813,613.9688 Z " fill="#000000"/><text fill="#000000" font-family="sans-serif" font-size="14" lengthAdjust="spacing" textLength="38" x="1355" y="622.8467">Point</text><line style="stroke:#A80036;stroke-width:1.0;" x1="1327" x2="1395" y1="634" y2="634"/><ellipse cx="1337" cy="647.6484" fill="none" rx="3" ry="3" style="stroke:#038048;stroke-width:1.0;"/><text fill="#000000" font-family="sans-serif" font-size="14" lengthAdjust="spacing" textLength="32" x="1346" y="650.9951">int x</text><ellipse cx="1337" cy="663.9453" fill="none" rx="3" ry="3" style="stroke:#038048;stroke-width:1.0;"/><text fill="#000000" font-family="sans-serif" font-size="14" lengthAdjust="spacing" textLength="32" x="1346" y="667.292">int y</text><line style="stroke:#A80036;stroke-width:1.0;" x1="1327" x2="1395" y1="674.5938" y2="674.5938"/></g><!--class AttributeRecord--><g id="elem_AttributeRecord"><rect codeLine="40" fill="#FEFECE" filter="url(#f8tp2hn8l0no0)" height="96.8906" id="AttributeRecord" style="stroke:#A80036;stroke-width:1.0;" width="414" x="987" y="231"/><ellipse cx="1130.25" cy="247" fill="#ADD1B2" rx="11" ry="11" style="stroke:#A80036;stroke-width:1.0;"/><path d="M1132.5938,242.6719 C1131.6563,242.2344 1131.0625,242.0938 1130.1875,242.0938 C1127.5625,242.0938 1125.5625,244.1719 1125.5625,246.8906 L1125.5625,248.0156 C1125.5625,250.5938 1127.6719,252.4844 1130.5625,252.4844 C1131.7813,252.4844 1132.9375,252.1875 1133.6875,251.6406 C1134.2656,251.2344 1134.5938,250.7813 1134.5938,250.3906 C1134.5938,249.9375 1134.2031,249.5469 1133.7344,249.5469 C1133.5156,249.5469 1133.3125,249.625 1133.125,249.8125 C1132.6719,250.2969 1132.6719,250.2969 1132.4844,250.3906 C1132.0625,250.6563 1131.375,250.7813 1130.6094,250.7813 C1128.5625,250.7813 1127.2656,249.6875 1127.2656,247.9844 L1127.2656,246.8906 C1127.2656,245.1094 1128.5156,243.7969 1130.25,243.7969 C1130.8281,243.7969 1131.4375,243.9531 1131.9063,244.2031 C1132.3906,244.4844 1132.5625,244.7031 1132.6563,245.1094 C1132.7188,245.5156 1132.75,245.6406 1132.8906,245.7656 C1133.0313,245.9063 1133.2656,246.0156 1133.4844,246.0156 C1133.75,246.0156 1134.0156,245.875 1134.1875,245.6563 C1134.2969,245.5 1134.3281,245.3125 1134.3281,244.8906 L1134.3281,243.4688 C1134.3281,243.0313 1134.3125,242.9063 1134.2188,242.75 C1134.0625,242.4844 1133.7813,242.3438 1133.4844,242.3438 C1133.1875,242.3438 1132.9844,242.4375 1132.7656,242.75 L1132.5938,242.6719 Z " fill="#000000"/><text fill="#000000" font-family="sans-serif" font-size="14" lengthAdjust="spacing" textLength="119" x="1150.75" y="251.8467">AttributeRecord</text><line style="stroke:#A80036;stroke-width:1.0;" x1="988" x2="1400" y1="263" y2="263"/><rect fill="none" height="6" style="stroke:#C82930;stroke-width:1.0;" width="6" x="995" y="273.6484"/><text fill="#000000" font-family="sans-serif" font-size="14" lengthAdjust="spacing" textLength="234" x="1007" y="279.9951">Map&lt;String, Integer&gt; attributes</text><line style="stroke:#A80036;stroke-width:1.0;" x1="988" x2="1400" y1="287.2969" y2="287.2969"/><ellipse cx="998" cy="300.9453" fill="#84BE84" rx="3" ry="3" style="stroke:#038048;stroke-width:1.0;"/><text fill="#000000" font-family="sans-serif" font-size="14" lengthAdjust="spacing" textLength="388" x="1007" y="304.292">void updateAttributes(int battery, int distG, int distB)</text><ellipse cx="998" cy="317.2422" fill="#84BE84" rx="3" ry="3" style="stroke:#038048;stroke-width:1.0;"/><text fill="#000000" font-family="sans-serif" font-size="14" lengthAdjust="spacing" textLength="271" x="1007" y="320.5889">Map&lt;String, Integer&gt; getAttributes()</text></g><!--class MovesRecord--><g id="elem_MovesRecord"><rect codeLine="45" fill="#FEFECE" filter="url(#f8tp2hn8l0no0)" height="113.1875" id="MovesRecord" style="stroke:#A80036;stroke-width:1.0;" width="320" x="632" y="223"/><ellipse cx="739.75" cy="239" fill="#ADD1B2" rx="11" ry="11" style="stroke:#A80036;stroke-width:1.0;"/><path d="M742.0938,234.6719 C741.1563,234.2344 740.5625,234.0938 739.6875,234.0938 C737.0625,234.0938 735.0625,236.1719 735.0625,238.8906 L735.0625,240.0156 C735.0625,242.5938 737.1719,244.4844 740.0625,244.4844 C741.2813,244.4844 742.4375,244.1875 743.1875,243.6406 C743.7656,243.2344 744.0938,242.7813 744.0938,242.3906 C744.0938,241.9375 743.7031,241.5469 743.2344,241.5469 C743.0156,241.5469 742.8125,241.625 742.625,241.8125 C742.1719,242.2969 742.1719,242.2969 741.9844,242.3906 C741.5625,242.6563 740.875,242.7813 740.1094,242.7813 C738.0625,242.7813 736.7656,241.6875 736.7656,239.9844 L736.7656,238.8906 C736.7656,237.1094 738.0156,235.7969 739.75,235.7969 C740.3281,235.7969 740.9375,235.9531 741.4063,236.2031 C741.8906,236.4844 742.0625,236.7031 742.1563,237.1094 C742.2188,237.5156 742.25,237.6406 742.3906,237.7656 C742.5313,237.9063 742.7656,238.0156 742.9844,238.0156 C743.25,238.0156 743.5156,237.875 743.6875,237.6563 C743.7969,237.5 743.8281,237.3125 743.8281,236.8906 L743.8281,235.4688 C743.8281,235.0313 743.8125,234.9063 743.7188,234.75 C743.5625,234.4844 743.2813,234.3438 742.9844,234.3438 C742.6875,234.3438 742.4844,234.4375 742.2656,234.75 L742.0938,234.6719 Z " fill="#000000"/><text fill="#000000" font-family="sans-serif" font-size="14" lengthAdjust="spacing" textLength="96" x="760.25" y="243.8467">MovesRecord</text><line style="stroke:#A80036;stroke-width:1.0;" x1="633" x2="951" y1="255" y2="255"/><rect fill="none" height="6" style="stroke:#C82930;stroke-width:1.0;" width="6" x="640" y="265.6484"/><text fill="#000000" font-family="sans-serif" font-size="14" lengthAdjust="spacing" textLength="200" x="652" y="271.9951">List&lt;Decision&gt; prev_moves</text><line style="stroke:#A80036;stroke-width:1.0;" x1="633" x2="951" y1="279.2969" y2="279.2969"/><ellipse cx="643" cy="292.9453" fill="#84BE84" rx="3" ry="3" style="stroke:#038048;stroke-width:1.0;"/><text fill="#000000" font-family="sans-serif" font-size="14" lengthAdjust="spacing" textLength="294" x="652" y="296.292">void addPrevMoves(Decision dec_to_add)</text><ellipse cx="643" cy="309.2422" fill="#84BE84" rx="3" ry="3" style="stroke:#038048;stroke-width:1.0;"/><text fill="#000000" font-family="sans-serif" font-size="14" lengthAdjust="spacing" textLength="178" x="652" y="312.5889">boolean movesIsEmpty()</text><ellipse cx="643" cy="325.5391" fill="#84BE84" rx="3" ry="3" style="stroke:#038048;stroke-width:1.0;"/><text fill="#000000" font-family="sans-serif" font-size="14" lengthAdjust="spacing" textLength="168" x="652" y="328.8857">Decision getLastMove()</text></g><!--class Heading--><g id="elem_Heading"><rect codeLine="52" fill="#FEFECE" filter="url(#f8tp2hn8l0no0)" height="48" id="Heading" style="stroke:#A80036;stroke-width:1.0;" width="90" x="1555" y="445"/><ellipse cx="1570" cy="461" fill="#EB937F" rx="11" ry="11" style="stroke:#A80036;stroke-width:1.0;"/><path d="M1568.7969,461.875 L1570.25,461.875 L1570.25,461.9844 C1570.25,462.3906 1570.2813,462.5469 1570.3594,462.7031 C1570.5156,462.9531 1570.7969,463.1094 1571.0938,463.1094 C1571.3438,463.1094 1571.6094,462.9688 1571.7656,462.75 C1571.8906,462.5938 1571.9219,462.4375 1571.9219,461.9844 L1571.9219,460.0625 C1571.9219,459.9063 1571.9219,459.8594 1571.9063,459.7031 C1571.8438,459.2344 1571.5313,458.9219 1571.0781,458.9219 C1570.8281,458.9219 1570.5625,459.0625 1570.3906,459.2813 C1570.2813,459.4531 1570.25,459.6094 1570.25,460.0625 L1570.25,460.1875 L1568.7969,460.1875 L1568.7969,457.7813 L1572.7813,457.7813 L1572.7813,458.6406 C1572.7813,459.0469 1572.8125,459.2188 1572.8906,459.375 C1573.0625,459.625 1573.3438,459.7813 1573.625,459.7813 C1573.8906,459.7813 1574.1563,459.6406 1574.3281,459.4219 C1574.4375,459.25 1574.4688,459.1094 1574.4688,458.6406 L1574.4688,456.0938 L1566.8438,456.0938 C1566.4063,456.0938 1566.2813,456.1094 1566.125,456.2031 C1565.875,456.3594 1565.7188,456.6563 1565.7188,456.9375 C1565.7188,457.2188 1565.8594,457.4688 1566.0781,457.6406 C1566.2344,457.75 1566.4219,457.7813 1566.8438,457.7813 L1567.0938,457.7813 L1567.0938,464.2969 L1566.8438,464.2969 C1566.4375,464.2969 1566.2813,464.3125 1566.125,464.4219 C1565.875,464.5938 1565.7188,464.8594 1565.7188,465.1563 C1565.7188,465.4219 1565.8594,465.6719 1566.0781,465.8281 C1566.2188,465.9531 1566.4531,466 1566.8438,466 L1574.8438,466 L1574.8438,463.4219 C1574.8438,462.9844 1574.8125,462.8438 1574.7344,462.6875 C1574.5625,462.4375 1574.2813,462.2813 1574,462.2813 C1573.7344,462.2813 1573.4688,462.3906 1573.2969,462.6406 C1573.1875,462.7969 1573.1563,462.9375 1573.1563,463.4219 L1573.1563,464.2969 L1568.7969,464.2969 L1568.7969,461.875 Z " fill="#000000"/><text fill="#000000" font-family="sans-serif" font-size="14" lengthAdjust="spacing" textLength="58" x="1584" y="465.8467">Heading</text><line style="stroke:#A80036;stroke-width:1.0;" x1="1556" x2="1644" y1="477" y2="477"/><line style="stroke:#A80036;stroke-width:1.0;" x1="1556" x2="1644" y1="485" y2="485"/></g><!--class TileType--><g id="elem_TileType"><rect codeLine="53" fill="#FEFECE" filter="url(#f8tp2hn8l0no0)" height="48" id="TileType" style="stroke:#A80036;stroke-width:1.0;" width="94" x="1680" y="445"/><ellipse cx="1695" cy="461" fill="#EB937F" rx="11" ry="11" style="stroke:#A80036;stroke-width:1.0;"/><path d="M1693.7969,461.875 L1695.25,461.875 L1695.25,461.9844 C1695.25,462.3906 1695.2813,462.5469 1695.3594,462.7031 C1695.5156,462.9531 1695.7969,463.1094 1696.0938,463.1094 C1696.3438,463.1094 1696.6094,462.9688 1696.7656,462.75 C1696.8906,462.5938 1696.9219,462.4375 1696.9219,461.9844 L1696.9219,460.0625 C1696.9219,459.9063 1696.9219,459.8594 1696.9063,459.7031 C1696.8438,459.2344 1696.5313,458.9219 1696.0781,458.9219 C1695.8281,458.9219 1695.5625,459.0625 1695.3906,459.2813 C1695.2813,459.4531 1695.25,459.6094 1695.25,460.0625 L1695.25,460.1875 L1693.7969,460.1875 L1693.7969,457.7813 L1697.7813,457.7813 L1697.7813,458.6406 C1697.7813,459.0469 1697.8125,459.2188 1697.8906,459.375 C1698.0625,459.625 1698.3438,459.7813 1698.625,459.7813 C1698.8906,459.7813 1699.1563,459.6406 1699.3281,459.4219 C1699.4375,459.25 1699.4688,459.1094 1699.4688,458.6406 L1699.4688,456.0938 L1691.8438,456.0938 C1691.4063,456.0938 1691.2813,456.1094 1691.125,456.2031 C1690.875,456.3594 1690.7188,456.6563 1690.7188,456.9375 C1690.7188,457.2188 1690.8594,457.4688 1691.0781,457.6406 C1691.2344,457.75 1691.4219,457.7813 1691.8438,457.7813 L1692.0938,457.7813 L1692.0938,464.2969 L1691.8438,464.2969 C1691.4375,464.2969 1691.2813,464.3125 1691.125,464.4219 C1690.875,464.5938 1690.7188,464.8594 1690.7188,465.1563 C1690.7188,465.4219 1690.8594,465.6719 1691.0781,465.8281 C1691.2188,465.9531 1691.4531,466 1691.8438,466 L1699.8438,466 L1699.8438,463.4219 C1699.8438,462.9844 1699.8125,462.8438 1699.7344,462.6875 C1699.5625,462.4375 1699.2813,462.2813 1699,462.2813 C1698.7344,462.2813 1698.4688,462.3906 1698.2969,462.6406 C1698.1875,462.7969 1698.1563,462.9375 1698.1563,463.4219 L1698.1563,464.2969 L1693.7969,464.2969 L1693.7969,461.875 Z " fill="#000000"/><text fill="#000000" font-family="sans-serif" font-size="14" lengthAdjust="spacing" textLength="62" x="1709" y="465.8467">TileType</text><line style="stroke:#A80036;stroke-width:1.0;" x1="1681" x2="1773" y1="477" y2="477"/><line style="stroke:#A80036;stroke-width:1.0;" x1="1681" x2="1773" y1="485" y2="485"/></g><!--class Explorer--><g id="elem_Explorer"><rect codeLine="62" fill="#FEFECE" filter="url(#f8tp2hn8l0no0)" height="48" id="Explorer" style="stroke:#A80036;stroke-width:1.0;" width="93" x="946.5" y="115"/><ellipse cx="961.5" cy="131" fill="#ADD1B2" rx="11" ry="11" style="stroke:#A80036;stroke-width:1.0;"/><path d="M963.8438,126.6719 C962.9063,126.2344 962.3125,126.0938 961.4375,126.0938 C958.8125,126.0938 956.8125,128.1719 956.8125,130.8906 L956.8125,132.0156 C956.8125,134.5938 958.9219,136.4844 961.8125,136.4844 C963.0313,136.4844 964.1875,136.1875 964.9375,135.6406 C965.5156,135.2344 965.8438,134.7813 965.8438,134.3906 C965.8438,133.9375 965.4531,133.5469 964.9844,133.5469 C964.7656,133.5469 964.5625,133.625 964.375,133.8125 C963.9219,134.2969 963.9219,134.2969 963.7344,134.3906 C963.3125,134.6563 962.625,134.7813 961.8594,134.7813 C959.8125,134.7813 958.5156,133.6875 958.5156,131.9844 L958.5156,130.8906 C958.5156,129.1094 959.7656,127.7969 961.5,127.7969 C962.0781,127.7969 962.6875,127.9531 963.1563,128.2031 C963.6406,128.4844 963.8125,128.7031 963.9063,129.1094 C963.9688,129.5156 964,129.6406 964.1406,129.7656 C964.2813,129.9063 964.5156,130.0156 964.7344,130.0156 C965,130.0156 965.2656,129.875 965.4375,129.6563 C965.5469,129.5 965.5781,129.3125 965.5781,128.8906 L965.5781,127.4688 C965.5781,127.0313 965.5625,126.9063 965.4688,126.75 C965.3125,126.4844 965.0313,126.3438 964.7344,126.3438 C964.4375,126.3438 964.2344,126.4375 964.0156,126.75 L963.8438,126.6719 Z " fill="#000000"/><text fill="#000000" font-family="sans-serif" font-size="14" lengthAdjust="spacing" textLength="61" x="975.5" y="135.8467">Explorer</text><line style="stroke:#A80036;stroke-width:1.0;" x1="947.5" x2="1038.5" y1="147" y2="147"/><line style="stroke:#A80036;stroke-width:1.0;" x1="947.5" x2="1038.5" y1="155" y2="155"/></g><!--class Runner--><g id="elem_Runner"><rect codeLine="63" fill="#FEFECE" filter="url(#f8tp2hn8l0no0)" height="48" id="Runner" style="stroke:#A80036;stroke-width:1.0;" width="83" x="951.5" y="7"/><ellipse cx="966.5" cy="23" fill="#ADD1B2" rx="11" ry="11" style="stroke:#A80036;stroke-width:1.0;"/><path d="M968.8438,18.6719 C967.9063,18.2344 967.3125,18.0938 966.4375,18.0938 C963.8125,18.0938 961.8125,20.1719 961.8125,22.8906 L961.8125,24.0156 C961.8125,26.5938 963.9219,28.4844 966.8125,28.4844 C968.0313,28.4844 969.1875,28.1875 969.9375,27.6406 C970.5156,27.2344 970.8438,26.7813 970.8438,26.3906 C970.8438,25.9375 970.4531,25.5469 969.9844,25.5469 C969.7656,25.5469 969.5625,25.625 969.375,25.8125 C968.9219,26.2969 968.9219,26.2969 968.7344,26.3906 C968.3125,26.6563 967.625,26.7813 966.8594,26.7813 C964.8125,26.7813 963.5156,25.6875 963.5156,23.9844 L963.5156,22.8906 C963.5156,21.1094 964.7656,19.7969 966.5,19.7969 C967.0781,19.7969 967.6875,19.9531 968.1563,20.2031 C968.6406,20.4844 968.8125,20.7031 968.9063,21.1094 C968.9688,21.5156 969,21.6406 969.1406,21.7656 C969.2813,21.9063 969.5156,22.0156 969.7344,22.0156 C970,22.0156 970.2656,21.875 970.4375,21.6563 C970.5469,21.5 970.5781,21.3125 970.5781,20.8906 L970.5781,19.4688 C970.5781,19.0313 970.5625,18.9063 970.4688,18.75 C970.3125,18.4844 970.0313,18.3438 969.7344,18.3438 C969.4375,18.3438 969.2344,18.4375 969.0156,18.75 L968.8438,18.6719 Z " fill="#000000"/><text fill="#000000" font-family="sans-serif" font-size="14" lengthAdjust="spacing" textLength="51" x="980.5" y="27.8467">Runner</text><line style="stroke:#A80036;stroke-width:1.0;" x1="952.5" x2="1033.5" y1="39" y2="39"/><line style="stroke:#A80036;stroke-width:1.0;" x1="952.5" x2="1033.5" y1="47" y2="47"/></g><!--reverse link Module to Radar--><g id="link_Module_Radar"><path codeLine="15" d="M240.0817,322.9453 C197.0057,342.6043 162.508,362.485 123,396 C106.676,409.848 92.3587,429.494 82.5753,444.767 " fill="none" id="Module-backto-Radar" style="stroke:#A80036;stroke-width:1.0;"/><polygon fill="none" points="256.457,315.472,237.5906,317.4869,242.5728,328.4038,256.457,315.472" style="stroke:#A80036;stroke-width:1.0;"/></g><!--reverse link Module to Turner--><g id="link_Module_Turner"><path codeLine="16" d="M286.5194,341.0784 C267.0234,361.6284 256.701,373.114 237,396 C223.27,411.949 208.545,430.593 197.501,444.913 " fill="none" id="Module-backto-Turner" style="stroke:#A80036;stroke-width:1.0;"/><polygon fill="none" points="298.908,328.02,282.1666,336.9488,290.8722,345.2079,298.908,328.02" style="stroke:#A80036;stroke-width:1.0;"/></g><!--reverse link Module to Flyer--><g id="link_Module_Flyer"><path codeLine="17" d="M325.2338,345.5209 C313.8878,382.8449 303.852,415.856 295.052,444.803 " fill="none" id="Module-backto-Flyer" style="stroke:#A80036;stroke-width:1.0;"/><polygon fill="none" points="330.469,328.299,319.4932,343.7758,330.9744,347.2659,330.469,328.299" style="stroke:#A80036;stroke-width:1.0;"/></g><!--reverse link Module to Scanner--><g id="link_Module_Scanner"><path codeLine="18" d="M364.7662,345.5209 C376.1122,382.8449 386.148,415.856 394.948,444.803 " fill="none" id="Module-backto-Scanner" style="stroke:#A80036;stroke-width:1.0;"/><polygon fill="none" points="359.531,328.299,359.0256,347.2659,370.5068,343.7758,359.531,328.299" style="stroke:#A80036;stroke-width:1.0;"/></g><!--link Module to Decision--><g id="link_Module_Decision"><path codeLine="19" d="M395.515,328.109 C416.951,348.675 442.014,373.205 464,396 C479.432,412 492.2558,426.1478 504.9098,440.4538 " fill="none" id="Module-to-Decision" style="stroke:#A80036;stroke-width:1.0;"/><polygon fill="#A80036" points="508.885,444.948,505.9183,435.5566,505.5723,441.2028,499.9261,440.8569,508.885,444.948" style="stroke:#A80036;stroke-width:1.0;"/></g><!--reverse link MapUpdater to RelativeMap--><g id="link_MapUpdater_RelativeMap"><path codeLine="55" d="M1528.8381,339.0257 C1502.1581,359.5307 1484.63,372.998 1455.13,395.668 " fill="none" id="MapUpdater-backto-RelativeMap" style="stroke:#A80036;stroke-width:1.0;stroke-dasharray:7.0,7.0;"/><polygon fill="none" points="1543.11,328.057,1525.1819,334.2684,1532.4943,343.783,1543.11,328.057" style="stroke:#A80036;stroke-width:1.0;"/></g><!--link MapUpdater to Heading--><g id="link_MapUpdater_Heading"><path codeLine="56" d="M1603.73,328.299 C1602.73,365.623 1601.5495,409.8581 1600.7795,438.8051 " fill="none" id="MapUpdater-to-Heading" style="stroke:#A80036;stroke-width:1.0;"/><polygon fill="#A80036" points="1600.62,444.803,1604.8579,435.9125,1600.753,439.8048,1596.8607,435.6998,1600.62,444.803" style="stroke:#A80036;stroke-width:1.0;"/></g><!--link MapUpdater to TileType--><g id="link_MapUpdater_TileType"><path codeLine="57" d="M1636.1,328.299 C1660.39,365.623 1689.7971,410.8273 1708.6371,439.7743 " fill="none" id="MapUpdater-to-TileType" style="stroke:#A80036;stroke-width:1.0;"/><polygon fill="#A80036" points="1711.91,444.803,1710.3531,435.078,1709.1826,440.6124,1703.6481,439.4419,1711.91,444.803" style="stroke:#A80036;stroke-width:1.0;"/></g><!--link RelativeMap to Point--><g id="link_RelativeMap_Point"><path codeLine="58" d="M1361,542.234 C1361,562.557 1361,577.918 1361,595.597 " fill="none" id="RelativeMap-to-Point" style="stroke:#A80036;stroke-width:1.0;"/><polygon fill="#A80036" points="1361,601.597,1365,592.597,1361,596.597,1357,592.597,1361,601.597" style="stroke:#A80036;stroke-width:1.0;"/></g><!--link MovesRecord to Decision--><g id="link_MovesRecord_Decision"><path codeLine="59" d="M702.964,336.202 C674.707,354.599 643.637,375.593 616,396 C595.023,411.489 576.9152,426.4129 559.9802,440.9309 " fill="none" id="MovesRecord-to-Decision" style="stroke:#A80036;stroke-width:1.0;"/><polygon fill="#A80036" points="555.425,444.836,564.8613,442.0152,559.221,441.5817,559.6545,435.9415,555.425,444.836" style="stroke:#A80036;stroke-width:1.0;"/></g><!--reverse link Explorer to Module--><g id="link_Explorer_Module"><path codeLine="65" d="M934.2704,141.7941 C862.4204,144.6351 732.873,152.984 616,180 C553.569,194.431 485.819,219.056 433.677,240.073 " fill="none" id="Explorer-backto-Module" style="stroke:#A80036;stroke-width:1.0;"/><polygon fill="none" points="946.261,141.32,940.1076,137.5602,934.2704,141.7941,940.4237,145.5539,946.261,141.32" style="stroke:#A80036;stroke-width:1.0;"/></g><!--reverse link Explorer to MapUpdater--><g id="link_Explorer_MapUpdater"><path codeLine="66" d="M1051.626,142.6553 C1146.946,147.2703 1348.98,159.081 1419,180 C1458.04,191.663 1498.35,211.852 1531.43,230.927 " fill="none" id="Explorer-backto-MapUpdater" style="stroke:#A80036;stroke-width:1.0;"/><polygon fill="none" points="1039.64,142.075,1045.4395,146.3605,1051.626,142.6553,1045.8264,138.3698,1039.64,142.075" style="stroke:#A80036;stroke-width:1.0;"/></g><!--reverse link Explorer to AttributeRecord--><g id="link_Explorer_AttributeRecord"><path codeLine="67" d="M1036.5214,169.9906 C1063.2314,188.3946 1091.59,207.936 1124.78,230.804 " fill="none" id="Explorer-backto-AttributeRecord" style="stroke:#A80036;stroke-width:1.0;"/><polygon fill="none" points="1026.64,163.182,1029.3112,169.8801,1036.5214,169.9906,1033.8503,163.2925,1026.64,163.182" style="stroke:#A80036;stroke-width:1.0;"/></g><!--reverse link Explorer to MovesRecord--><g id="link_Explorer_MovesRecord"><path codeLine="68" d="M949.4757,169.9908 C925.7837,186.3158 902.899,202.084 872.637,222.937 " fill="none" id="Explorer-backto-MovesRecord" style="stroke:#A80036;stroke-width:1.0;"/><polygon fill="none" points="959.357,163.182,952.1467,163.2926,949.4757,169.9908,956.6859,169.8802,959.357,163.182" style="stroke:#A80036;stroke-width:1.0;"/></g><!--reverse link Runner to Explorer--><g id="link_Runner_Explorer"><path codeLine="69" d="M993,67 C993,84.658 993,96.941 993,114.678 " fill="none" id="Runner-backto-Explorer" style="stroke:#A80036;stroke-width:1.0;"/><polygon fill="#A80036" points="993,55,989,61,993,67,997,61,993,55" style="stroke:#A80036;stroke-width:1.0;"/></g><!--SRC=[VLJRRjim37ttL_3HM-9-GH1WbsvjqIv1apqRiirbRXrBa-IiGPj_7tMrR6m3qfHt7XsIKSzj3v8hp3B1wcTsG7ZWpT2XWjSCW5LAIrPhg3kcb7TP3q3n6UjMjRm7BgpXDKHVO76tstpRL4z8gGVKHilVsQ35JiksFnZhHbZRXVvS-KVMC1cr_I1x7DKltJdHTZNhdHVxuGW12kdqyJ1NRqKHQwQsM3arXlgfRUpYhKMn7djTHiuUiUQoiSIqlKRvWzL491FVHSD8zOob19rusy1WtTJPa_EFW1ja3N6M-__Gu-_ofvF_csVWv_ksm_rPeCtI9CmunuxfzeG4DioLnDMMqpkM49BN87rSUMHkseKDWNgG4djT2gwSEO0C3W_K3T_bqEm_EU-Mgx0N4ITvWvoxU66-ory3ohCF3at6Ie6Zy3e0OcIWzNCbtDCMHdmPnVE4YW-QLhCQD2RJz7IufLt2BGttW78DBCIwLwUinp8gDpqg2YNWIxCOqBHAVnt5Z_uvVsr1RqjAJQVsm4-efZ3lgTugxEOQXCHJUJHX2K3MD5kos-mydc-3TQbvIKuFf-AyGzQ3JRzLrqUXmuOkOXR1ksTAcreUN3Z6cpXnguPX-jiSZsBrTdMLxj_KQqvjh3Hp93NJ1JOkEszxiID5yxDr95w_Y8vBEcz_2OEzzIoOWTClWBlxcIrYcTfd-pCl5E5ahXEy9tE8-GC0]--></g></svg>